{"title":"One Piece - 636 [HD 720p] [ENG SUBBED] [GWC].mp4","uid":9771624,"size":97457255,"categoryP":"video","categoryS":"tv_shows","magnet":"?xt=urn:btih:8348dbd6df5489d0ee0ace0c9035cc330ca60d3d&amp;dn=One+Piece+-+636+%5BHD+720p%5D+%5BENG+SUBBED%5D+%5BGWC%5D.mp4&amp;tr=udp%3A%2F%2Ftracker.openbittorrent.com%3A80&amp;tr=udp%3A%2F%2Fopen.demonii.com%3A1337&amp;tr=udp%3A%2F%2Ftracker.coppersurfer.tk%3A6969&amp;tr=udp%3A%2F%2Fexodus.desync.com%3A6969","seeders":1,"leechers":1,"uploader":"canc232","files":1,"time":1394958641,"description":"One Piece - 636 [HD 720p] [ENG SUBBED] [GWC]\n\n\nSTORYLINE :\nIt was a time when pirates ruled the seas. Several bands of pirates were battling over the great hidden treasure, One Piece, which was left by the now legendary pirate captain, Gold Roger. There was a young boy who admired the pirates, his name was Monkey D. Luffy. One day, he mistakenly eats the devil's fruit and turns himself into a rubber human being.\nTen years have passed since that incident. Luffy sets out to sail all alone. He sets out to become a great pirate captain and that's when his great adventure begins. &quot;I'm going to be the Pirate King! I'm going to get One Piece!&quot;.\n\n\nTHUMBNAIL IMAGE : &lt;a href=&quot;\nhttp://img841.imageshack.us/img841/5081/qz7x.jpg&quot; rel=&quot;nofollow&quot; target=&quot;_NEW&quot;&gt;\nhttp://img841.imageshack.us/img841/5081/qz7x.jpg&lt;/a&gt;\n\n\nMEDIA INFO :\nGeneral \nFormat : MPEG-4 \nFormat profile : Base Media \nFile size : 92.9 MiB \nDuration : 20mn 37s \nOverall bit rate : 630 Kbps \n\nVideo \nFormat : AVC \nFormat profile : &lt;a class=&quot;__cf_email__&quot; href=&quot;/cdn-cgi/l/email-protection&quot; data-cfemail=&quot;fcb4959b94bcb0c8d2cd&quot;&gt;[email&amp;#160;protected]&lt;/a&gt;&lt;script cf-hash='f9e31' type=&quot;text/javascript&quot;&gt;\n/* &lt;![CDATA[ */!function(){try{var t=&quot;currentScript&quot;in document?document.currentScript:function(){for(var t=document.getElementsByTagName(&quot;script&quot;),e=t.length;e--;)if(t[e].getAttribute(&quot;cf-hash&quot;))return t[e]}();if(t&amp;&amp;t.previousSibling){var e,r,n,i,c=t.previousSibling,a=c.getAttribute(&quot;data-cfemail&quot;);if(a){for(e=&quot;&quot;,r=parseInt(a.substr(0,2),16),n=2;a.length-n;n+=2)i=parseInt(a.substr(n,2),16)^r,e+=String.fromCharCode(i);e=document.createTextNode(e),c.parentNode.replaceChild(e,c)}}}catch(u){}}();/* ]]&gt; */&lt;/script&gt; \nFormat settings, CABAC : Yes \nFormat settings, ReFrames : 10 frames \nDuration : 20mn 37s \nBit rate : 561 Kbps \nMaximum bit rate : 4 762 Kbps \nWidth : 1 280 pixels \nHeight : 720 pixels \nDisplay aspect ratio : 16:9 \nFrame rate mode : Constant \nFrame rate : 29.970 fps \nStream size : 82.8 MiB (89%) \nTitle : One Piece - 636 [HD 720p] [ENG SUBBED] [GWC] \nLanguage : English \n\nAudio \nFormat : AAC \nFormat profile : HE-AAC / LC \nSource duration : 20mn 37s \nBit rate mode : Variable \nChannel(s) : 2 channels \nSampling rate : 44.1 KHz / 22.05 KHz \nStream size : 9.41 MiB (10%) \nTitle : One Piece - 636 [HD 720p] [ENG SUBBED] [GWC] \nLanguage : Japanese \n\nText \nFormat : Timed Text \nDuration : 20mn 20s \nTitle : [GWC] \nLanguage : English \n\n","torrent":{"xt":"urn:btih:8348dbd6df5489d0ee0ace0c9035cc330ca60d3d","amp;dn":"One+Piece+-+636+%5BHD+720p%5D+%5BENG+SUBBED%5D+%5BGWC%5D.mp4","amp;tr":["udp%3A%2F%2Ftracker.openbittorrent.com%3A80","udp%3A%2F%2Fopen.demonii.com%3A1337","udp%3A%2F%2Ftracker.coppersurfer.tk%3A6969","udp%3A%2F%2Fexodus.desync.com%3A6969"],"infoHash":"8348dbd6df5489d0ee0ace0c9035cc330ca60d3d","infoHashBuffer":{"type":"Buffer","data":[131,72,219,214,223,84,137,208,238,10,206,12,144,53,204,51,12,166,13,61]},"announce":[],"urlList":[]}}